<!--?xml version="1.0" encoding="utf-8"?-->
<!-- Generator: Adobe Illustrator 19.2.0, SVG Export Plug-In . SVG Version: 6.00 Build 0)  -->
<svg version="1.1" id="Layer_1" xmlns="http://www.w3.org/2000/svg" xmlns:xlink="http://www.w3.org/1999/xlink" x="0px" y="0px" viewBox="0 0 216.3 34.8" style="" xml:space="preserve">
<style type="text/css">
	.st0{display:none;}
	.st1{display:inline;opacity:0.2;}
	.st2{fill:#2F1118;}
	.st3{fill:none;stroke:#2F1118;stroke-width:0.5;stroke-linecap:round;stroke-linejoin:round;stroke-miterlimit:10;}
</style>
<g id="Layer_1_1_" class="st0">
	<g class="st1">
		<path class="st2 sMgjptfA_0" d="M1.3,25.8C1,25.5,1,25.2,1,24.7c0.1-0.4,0.3-0.9,0.6-1.3l0.3-0.5l-0.1-0.1l0,0c0,0,0,0,0-0.1
			c-0.2-0.2-0.1-0.3,0.1-0.4l0.9-0.5L3,21.5c0.4-0.5,0.8-1,1.1-1.5c0.4-0.4,0.7-0.8,1-1.2c0.7-0.9,1.5-1.6,2.3-2.3
			c0.8-0.7,1.5-1.2,2.2-1.7s1.3-0.8,1.8-1.1c0.5-0.3,0.9-0.4,1.2-0.5c0.1,0,0.1,0,0.2,0c0,0,0.1,0,0.2,0c0.2,0,0.3,0.1,0.3,0.2
			s0.1,0.2,0.1,0.4c0,0.3-0.3,0.7-0.8,1.2c-0.5,0.6-1.2,1.2-2,1.9c-0.8,0.7-1.7,1.5-2.9,2.3c-1.1,0.8-2.5,1.7-4,2.8l-0.5,0.3
			l-0.4,0.5c-0.9,1.4-1.3,2.3-1.1,2.6c0.2,0.2,0.5,0.2,1,0s1-0.5,1.6-1c0.1-0.1,0.1-0.2,0.2-0.2s0.1-0.1,0.2-0.2L5,23.6l-0.3-0.3
			c0-0.1,0-0.1,0-0.2c0-0.1,0-0.1,0-0.2c-0.3-0.6-0.3-1,0-1.4s0.6-0.5,1-0.3L6,21.4l0.1,0.1c0.3,0.5,0.3,1,0,1.5L6,23.5
			c0.5,0.3,1.3,0.3,2.4,0.1c1-0.2,2.3-0.8,3.9-1.8c0.2-0.2,0.4-0.2,0.5,0.1c0.1,0.1,0.1,0.1,0.1,0.2c0,0.1-0.1,0.1-0.2,0.2
			c-1.6,1.1-3,1.7-4.2,2c-1.2,0.3-2.1,0.2-2.9-0.1L4.8,25c-0.3,0.2-0.5,0.4-0.8,0.6C3.7,25.8,3.4,26,3,26c-0.3,0.1-0.6,0.2-0.9,0.1
			C1.6,26.2,1.5,26,1.3,25.8z M10,16.5c0.4-0.4,0.8-0.8,1.2-1.1c0.3-0.4,0.6-0.6,0.8-0.8c0.1-0.1,0.2-0.3,0.3-0.4l0.2-0.3l-0.3,0.1
			c-0.3,0.2-0.7,0.4-1.2,0.7s-1,0.6-1.6,1.1c-0.6,0.4-1.2,0.9-1.9,1.5c-0.7,0.6-1.3,1.3-1.9,2L4.8,20l-0.5,0.8l0.2-0.1
			c1.2-0.8,2.3-1.6,3.1-2.3C8.5,17.8,9.3,17.1,10,16.5z M5.4,22c-0.1-0.1-0.2,0-0.3,0.2C5,22.4,5,22.6,5.1,23C5.2,23,5.2,23,5.2,23
			s0,0,0.1,0h0.1L5.5,23C5.5,22.5,5.5,22.2,5.4,22z"></path>
		<path class="st2 sMgjptfA_1" d="M7.5,33.3c-0.1-0.5,0-1,0.3-1.5s0.8-1,1.4-1.4s1.3-0.8,2.2-1.1c0.8-0.3,1.7-0.5,2.6-0.5h0.4
			c0.6-1.2,1.1-2.1,1.4-2.8s0.6-1.2,0.7-1.5c0.2-0.4,0.3-0.6,0.3-0.7c0.1-0.1,0.1-0.2,0.1-0.3l-0.4,0.3c-0.5,0.4-1,0.7-1.4,0.8
			c-0.5,0.2-0.9,0.1-1.2-0.1v-0.1c-0.3-0.3-0.4-0.7-0.3-1.3l0.2-0.4l-1,0.6c-0.3,0.1-0.5,0.1-0.6-0.1c-0.1-0.2,0-0.3,0.2-0.4
			c0.4-0.2,0.7-0.4,1.1-0.6c0.4-0.2,0.6-0.5,0.8-0.6l0.1-0.1c0.3-0.3,0.5-0.3,0.7-0.2c0.2,0.1,0.2,0.3-0.1,0.6l-0.2,0.2
			c-0.5,0.9-0.7,1.5-0.5,1.7V24l0.1,0.1c0.4,0.1,0.8,0,1.5-0.4c0.6-0.4,1.2-0.8,1.6-1.4v-0.1c-0.1,0.1-0.1,0,0,0
			c0-0.1,0.2-0.1,0.3,0h0.1c0.1,0,0.1,0.1,0.1,0.1v0.1v0.1v0.2c-0.4,1.1-0.8,2.1-1.3,3.2c-0.5,1.1-1,2.1-1.6,3.1h1
			c0.5,0.1,1,0.2,1.5,0.4c0.5,0.1,1,0.3,1.5,0.6c0.2,0.1,0.2,0.3,0.1,0.5c-0.1,0.1-0.3,0.2-0.4,0.1c-0.6-0.4-1.3-0.6-1.9-0.7
			c-0.6-0.1-1.2-0.2-1.9-0.3h-0.2c-1,1.4-2,2.6-3.1,3.4c-1.1,0.8-2.2,1.2-3.1,1.2c-0.3,0-0.5,0-0.7-0.1C7.5,33.8,7.5,33.7,7.5,33.3z
			 M13.3,29.5c-0.4,0-0.7,0-1,0.1s-0.6,0.2-0.9,0.3c-1.1,0.4-2,0.9-2.6,1.5S7.9,32.6,8,33.2c0,0,0,0.1,0.1,0.1
			c0.1,0.1,0.2,0.1,0.4,0.1c0.9,0,1.8-0.4,2.7-1.1c0.9-0.7,1.8-1.7,2.7-2.8L13.3,29.5z"></path>
		<path class="st2 sMgjptfA_2" d="M36.3,19.3c0.2-0.2,0.4-0.2,0.6,0c0,0.3,0.6,0.4,1.8,0.5c1.2,0,2.8,0,4.8-0.1c0.8,0,1.7,0,2.6-0.1
			c0.9,0,1.9-0.2,2.9-0.3c2.1-1.9,4.3-3.7,6.6-5.5c2.4-1.8,4.7-3.5,7-5.1s4.5-3,6.7-4.2s4.1-2.1,5.8-2.7c2.4-0.8,4.2-1.2,5.3-1
			C81.4,0.9,82,1.4,82,2.3s-0.3,1.9-1.2,3.3c-0.8,1.3-1.9,2.8-3.2,4.3c-0.8,0.9-1.8,2-3,3.3s-2.4,2.6-3.6,4c1-0.1,1.8-0.1,2.5-0.2
			s1.4-0.1,2.1,0h1.4c0.2,0.1,0.4,0.1,0.6,0.1s0.3,0,0.4,0.1s0.1,0.1,0.1,0.2s0,0.2-0.1,0.2c0,0.1,0,0.1-0.1,0.1s-0.2,0-0.3-0.1
			c0,0-0.2,0-0.6-0.1c-0.2,0-0.4,0-0.6,0s-0.5,0-0.8,0c-0.6,0-1.4,0-2.2,0.1c-0.8,0-1.7,0.2-2.6,0.3h-0.3c-0.6,0.8-1.2,1.5-1.8,2.3
			c-0.6,0.7-1,1.4-1.4,2.1s-0.7,1.2-0.9,1.8c-0.2,0.5-0.2,1-0.1,1.3c0.1,0.6,0.5,0.9,1.1,1.1c0.6,0.1,1.3,0.1,2.2,0
			c0.9-0.2,1.8-0.4,2.8-0.8c1-0.4,2-0.7,3-1.2c1-0.4,1.9-0.9,2.7-1.3c0.8-0.4,1.4-0.8,1.9-1c0.1-0.1,0.3,0,0.4,0.1s0,0.3-0.1,0.4
			c-0.5,0.3-1.2,0.7-2,1.2c-0.9,0.5-1.8,0.9-2.9,1.4c-1.1,0.4-2.1,0.9-3.3,1.2C71,26.9,70,27,69,27.2c-0.9,0.1-1.7,0-2.3-0.2
			c-0.6-0.2-1-0.7-1.1-1.5c-0.1-0.4,0-0.8,0.2-1.4c0.2-0.5,0.4-1.1,0.8-1.8c0.4-0.6,0.8-1.3,1.3-2.1c0.5-0.7,1.1-1.5,1.7-2.3
			c-1.8,0.2-3.8,0.4-5.9,0.6s-4.3,0.4-6.5,0.6c-1.4,0.2-2.8,0.4-4.2,0.5c-1.4,0.1-2.7,0.3-3.9,0.5c-1.3,1.2-2.6,2.4-3.8,3.6
			s-2.2,2.3-3.2,3.4c-0.9,1.1-1.7,2.1-2.4,3.1c-0.6,1-1.1,1.8-1.3,2.6c-0.1,0.4-0.3,0.5-0.5,0.5c-0.2-0.1-0.3-0.3-0.1-0.6
			c0.2-0.7,0.6-1.6,1.2-2.5c0.6-0.9,1.3-1.9,2.2-3s1.9-2.2,3-3.3c1.1-1.2,2.4-2.3,3.7-3.6c-0.8,0.1-1.6,0.1-2.4,0.2
			c-0.8,0.1-1.5,0.1-2.3,0.1c-0.4,0-1,0.1-1.7,0.1s-1.5,0-2.3,0s-1.5-0.1-2.1-0.2s-1-0.3-1.1-0.5c-0.1-0.1-0.1-0.2,0-0.3
			C36,19.3,36.2,19.3,36.3,19.3z M76.9,9.5c1.4-1.5,2.5-2.9,3.3-4.2c0.8-1.2,1.2-2.2,1.2-2.9c0-0.7-0.6-1.1-1.6-1.2
			c-1,0-2.6,0.3-4.9,1.1c-1.6,0.6-3.5,1.5-5.5,2.6c-2.1,1.2-4.2,2.5-6.4,4c-2.2,1.5-4.4,3.1-6.7,4.9c-2.3,1.8-4.4,3.6-6.4,5.4
			l7.2-0.9c2.4-0.3,4.7-0.5,6.9-0.7c2.3-0.2,4.3-0.4,6.2-0.6c1-1.2,2.1-2.5,3.3-3.8C74.8,12,75.8,10.6,76.9,9.5z"></path>
		<path class="st2 sMgjptfA_3" d="M81.4,25.3c-0.3-0.1-0.6-0.2-0.8-0.4c-0.2-0.2-0.4-0.5-0.4-0.8c0-0.2,0-0.4,0.1-0.6c0.1-0.2,0.2-0.5,0.3-0.7
			l0.2-0.2v-0.1c-0.2-0.2-0.1-0.3,0.1-0.4l0.4-0.2l0.3-0.5c0.7-0.9,1.6-1.9,2.7-3.1s2.3-2.3,3.6-3.4c1.2-1.1,2.5-2,3.7-2.9
			c1.2-0.8,2.3-1.4,3.1-1.7H95c0.3,0,0.5,0.1,0.5,0.4c-0.1,0.4-0.3,0.8-0.8,1.3s-1.1,1.2-2,1.9c-0.4,0.4-1,0.9-1.9,1.5
			c-0.8,0.7-1.7,1.4-2.7,2.2c-1,0.8-2,1.5-3,2.3c-1,0.7-1.9,1.3-2.6,1.8l-0.8,0.6l-0.1,0.2c-0.2,0.3-0.4,0.6-0.5,0.8
			c-0.1,0.3-0.2,0.5-0.2,0.8c0,0.4,0.2,0.6,0.7,0.7c0.4,0.1,1,0.1,1.7,0s1.4-0.2,2.3-0.5c0.8-0.2,1.6-0.5,2.4-0.7
			c0.8-0.3,1.5-0.6,2.1-0.8c0.6-0.3,1-0.5,1.3-0.7c0.2-0.2,0.4-0.2,0.5,0s0.1,0.3-0.1,0.5c-0.4,0.3-1,0.7-1.9,1.1
			c-0.9,0.4-1.8,0.8-2.9,1.1c-1,0.3-2.1,0.6-3.1,0.7C82.9,25.5,82.2,25.5,81.4,25.3z M92.3,13.5c0.5-0.4,0.9-0.7,1.2-1
			c0.3-0.3,0.6-0.6,0.8-0.9l0.3-0.3l0.2-0.3l-0.3,0.1c-1.1,0.5-2.3,1.2-3.4,2c-1.2,0.8-2.3,1.7-3.3,2.7c-1.1,0.9-2,1.8-2.9,2.7
			c-0.9,0.9-1.6,1.6-2.1,2.3l0.7-0.5c0.6-0.4,1.3-0.9,2.2-1.6c0.9-0.7,1.7-1.3,2.6-2s1.7-1.3,2.4-1.9C91.4,14.4,91.9,13.9,92.3,13.5
			z"></path>
		<path class="st2 sMgjptfA_4" d="M92.3,24.8c-0.2-0.3-0.2-0.6-0.1-0.9c0.1-0.4,0.3-0.7,0.5-0.9c-0.3,0.2-0.5,0.3-0.7,0.4
			c-0.2,0-0.3,0.1-0.5,0.2c-0.2,0.1-0.3,0.1-0.4-0.1c-0.1-0.2-0.1-0.3,0.1-0.4c0.4-0.2,0.7-0.3,0.9-0.4c0.2-0.1,0.4-0.2,0.6-0.4
			c0.2-0.1,0.3-0.2,0.5-0.4c0.2-0.1,0.5-0.3,0.8-0.5c0.2-0.1,0.3,0,0.5,0.1c0.1,0.2,0.1,0.3-0.1,0.4c-0.4,0.3-0.6,0.5-0.8,0.7
			c-0.2,0.2-0.3,0.5-0.5,0.7c-0.3,0.4-0.3,0.7-0.2,0.8c0.1,0.1,0.3,0.2,0.5,0.2c0.3,0,0.5,0,0.9-0.1c0.3-0.1,0.6-0.2,0.8-0.2
			c0.6-0.2,1.3-0.5,2.1-0.8c0.8-0.4,1.5-0.7,2.3-1.1c0.1-0.1,0.2-0.1,0.2-0.1c0.1,0,0.1,0.1,0.2,0.1c0.1,0.2,0,0.4-0.2,0.5
			c-0.3,0.2-0.8,0.5-1.6,0.8c-0.7,0.4-1.5,0.7-2.3,1s-1.6,0.5-2.3,0.6C93.1,25.3,92.6,25.3,92.3,24.8z M94.7,20
			c-0.1-0.1-0.1-0.1-0.1-0.2s0.1-0.1,0.2-0.1c0.2-0.2,0.4-0.4,0.6-0.6s0.4-0.5,0.6-0.7c0.1-0.2,0.2-0.3,0.4-0.1
			c0.3,0.1,0.3,0.3,0.2,0.4c-0.4,0.7-0.9,1.2-1.3,1.5C94.8,20.3,94.8,20.1,94.7,20z"></path>
		<path class="st2 sMgjptfA_5" d="M100.8,24.5c0.1-0.2,0.3-0.4,0.6-0.7c0.4-0.3,0.6-0.6,0.7-0.8c0.1-0.3,0.2-0.5,0.3-0.8
			c-0.3,0.2-0.6,0.4-0.9,0.6c-0.3,0.2-0.6,0.3-0.9,0.5c-0.2,0.1-0.3,0-0.4-0.1c-0.1-0.2-0.1-0.3,0.2-0.4c0.2-0.1,0.4-0.2,0.7-0.4
			c0.2-0.1,0.5-0.3,0.7-0.4s0.4-0.2,0.5-0.4c0.1-0.1,0.2-0.2,0.2-0.3v-0.1c0.1-0.2,0.2-0.2,0.3-0.3c0.1,0,0.2,0.1,0.3,0.3
			c0.1,0.4,0.1,0.6,0.1,0.9c0,0.2-0.1,0.5-0.2,0.7c1-0.5,1.8-1,2.5-1.3c0.7-0.4,1.3-0.4,1.7-0.1c0.2,0.1,0.2,0.2,0.2,0.4
			c0,0.2,0,0.4-0.1,0.5c-0.1,0.4-0.3,0.7-0.4,1.1c-0.1,0.3-0.2,0.6-0.2,0.8s0,0.4,0.1,0.5s0.3,0.1,0.7,0c0.8-0.2,1.7-0.5,2.8-1
			c1.1-0.5,2.2-1.1,3.1-1.7c0.2-0.1,0.4-0.1,0.5,0.1c0.1,0.2,0.1,0.3-0.1,0.4c-1.1,0.7-2.1,1.4-3.2,1.8c-1.1,0.5-2.2,0.8-3.2,1
			c-0.6,0.1-1,0-1.2-0.2c-0.2-0.3-0.2-0.6-0.2-1s0.2-0.8,0.4-1.2c0.2-0.4,0.3-0.8,0.4-1c-0.1-0.2-0.3-0.2-0.7-0.1
			c-0.4,0.1-0.8,0.3-1.3,0.6s-1,0.6-1.5,0.9c-0.5,0.3-0.8,0.6-1.1,0.8c-0.2,0.2-0.3,0.4-0.5,0.6c-0.2,0.2-0.3,0.3-0.4,0.4
			c-0.2,0.1-0.3,0.1-0.4,0C100.8,25,100.8,24.8,100.8,24.5z"></path>
		<path class="st2 sMgjptfA_6" d="M113.6,25.5c-0.4-0.2-0.5-0.6-0.4-1c0.1-0.5,0.3-0.9,0.7-1.3c0.4-0.4,0.9-0.8,1.4-1.2
			c0.6-0.3,1.2-0.5,1.7-0.5c0.4,0,0.7,0.1,1,0.2c0.3,0.2,0.5,0.3,0.6,0.5c0.1,0.1,0,0.2-0.1,0.3s-0.2,0.1-0.3,0
			c-0.2-0.1-0.3-0.2-0.5-0.3c-0.1-0.1-0.4-0.2-0.8-0.2c-0.4,0-0.8,0.1-1.2,0.4c-0.4,0.3-0.8,0.6-1.2,0.9s-0.6,0.7-0.7,1
			c-0.1,0.3-0.1,0.5,0.1,0.6c0.3,0.1,0.7,0,1.2-0.2s1-0.5,1.5-0.8s1-0.6,1.5-1s0.9-0.7,1.3-0.9c0.3-0.3,0.5-0.3,0.6-0.1
			s0.1,0.4-0.1,0.5c-0.4,0.3-0.7,0.6-0.8,1.1s-0.1,0.7,0.1,0.8c0.2,0.1,0.6,0,1.1-0.2s1-0.5,1.6-0.7c0.5-0.3,1.1-0.6,1.5-0.9
			s0.8-0.5,0.9-0.6c0.2-0.1,0.3,0,0.5,0.1c0.1,0.2,0.1,0.3-0.1,0.4c-0.2,0.1-0.6,0.3-1.1,0.6s-1,0.6-1.6,0.9
			c-0.6,0.3-1.1,0.5-1.7,0.7c-0.6,0.2-1,0.2-1.4,0.1c-0.4-0.1-0.6-0.3-0.6-0.6c-0.1-0.3,0-0.6,0.1-0.9c-0.4,0.3-0.8,0.5-1.2,0.8
			s-1,0.6-1.5,0.8s-1,0.4-1.4,0.5C114.1,25.8,113.8,25.7,113.6,25.5z"></path>
		<path class="st2 sMgjptfA_7" d="M124.4,32.8c-0.1-0.1-0.1-0.1-0.1-0.2c0-0.1,0.1-0.1,0.3-0.1c0.6-0.2,1.3-0.3,2-0.5s1.5-0.3,2.3-0.5
			c0.5-0.7,1.1-1.5,1.9-2.6c0.8-1.1,1.6-2.2,2.5-3.4s1.8-2.3,2.7-3.4c0.9-1.1,1.7-2.1,2.3-2.8l0.1-0.2h-0.4
			c-2.2-0.1-4.3-0.4-6.4-0.8c-2.1-0.4-3.8-1.2-5.3-2.4c-0.2-0.1-0.3-0.2-0.4-0.3c0-0.1,0-0.2,0-0.3c0-0.1,0.1-0.1,0.3-0.1
			s0.3,0.1,0.5,0.2c0.7,0.6,1.5,1,2.4,1.4s1.8,0.7,2.8,0.9c1,0.2,2,0.4,3,0.5s2.1,0.2,3.1,0.3h1l0.9-1.1c1.4-1.6,3-3.1,4.6-4.6
			s3.3-2.9,5-4.2c1.7-1.3,3.5-2.5,5.4-3.6s3.8-1.9,5.7-2.6c2-0.8,3.3-0.6,3.9,0.5c0.3,0.5,0.4,1.2,0.2,1.9s-0.5,1.5-1,2.2
			c-0.5,0.9-1.1,1.8-1.9,2.7c-0.8,0.9-1.8,1.8-2.9,2.8s-2.3,1.8-3.7,2.6c-1.4,0.8-2.9,1.5-4.5,2.1c-1.7,0.7-3.5,1.2-5.3,1.5
			c-1.9,0.3-3.7,0.5-5.6,0.5h-0.5l-0.5,0.6c-0.6,0.7-1.3,1.6-2.1,2.6c-0.8,1-1.6,2.1-2.4,3.1c-0.8,1.1-1.6,2.2-2.4,3.2
			c-0.8,1-1.4,1.9-2,2.7c1.3-0.3,2.7-0.6,4-0.8c1.4-0.3,2.7-0.5,4-0.8c1.3-0.2,2.6-0.5,3.7-0.6c1.2-0.2,2.2-0.4,3-0.5
			c2.4-0.4,4.5-0.6,6.4-0.6s3.4,0.1,4.4,0.3c0.2,0.1,0.3,0.2,0.2,0.4c-0.1,0.3-0.2,0.4-0.4,0.2c-0.9-0.2-2.2-0.3-4.1-0.2
			c-1.9,0-4,0.2-6.4,0.5c-0.9,0.1-2,0.3-3.3,0.5c-1.2,0.2-2.6,0.4-3.9,0.7c-1.4,0.3-2.8,0.5-4.2,0.8s-2.8,0.6-4.2,0.9
			c-0.1,0.1-0.1,0.1-0.1,0.1c-0.1,0.2-0.2,0.3-0.4,0.1l-0.1-0.1c-0.7,0.2-1.4,0.3-2.1,0.5c-0.7,0.2-1.3,0.3-1.8,0.5
			C124.6,33,124.4,33,124.4,32.8z M150.6,16.5c1.6-0.6,3-1.3,4.4-2.1c1.4-0.8,2.6-1.6,3.6-2.5c1.1-0.9,2-1.8,2.8-2.7
			c0.8-0.9,1.4-1.8,1.8-2.6c0.5-0.8,0.8-1.5,0.9-2.1c0.1-0.6,0.1-1.1-0.1-1.4c-0.2-0.3-0.5-0.5-1-0.6s-1.3,0-2.3,0.4
			c-1.9,0.6-3.7,1.5-5.5,2.5c-1.8,1.1-3.6,2.2-5.3,3.5s-3.3,2.7-4.9,4.2s-3.1,3-4.4,4.5l-0.6,0.8l1.4-0.1c1.6-0.1,3.2-0.3,4.7-0.6
			C147.6,17.5,149.1,17,150.6,16.5z"></path>
		<path class="st2 sMgjptfA_8" d="M154.3,22.5c0.2-0.5,0.5-0.9,1-1.2c0.4-0.4,0.9-0.6,1.3-0.7c0.4-0.1,0.7-0.1,1,0s0.5,0.3,0.5,0.6
			c0,0.3-0.1,0.6-0.4,0.8c-0.3,0.3-0.6,0.5-1,0.7s-0.8,0.4-1.2,0.6c-0.4,0.2-0.6,0.3-0.8,0.3c0.2,0.4,0.5,0.8,1,1s1.1,0.3,1.8,0.2
			c1.2-0.2,2.4-0.5,3.6-1c1.2-0.5,2.2-1.1,3.1-1.7c0.2-0.2,0.4-0.2,0.5,0s0.1,0.3-0.1,0.5c-0.4,0.3-1,0.6-1.6,1s-1.3,0.6-2,0.9
			c-0.7,0.3-1.4,0.5-2.1,0.7c-0.7,0.2-1.4,0.3-2.1,0.3c-0.4,0-0.9-0.1-1.2-0.2c-0.4-0.1-0.7-0.3-1-0.6s-0.4-0.6-0.5-0.9
			C153.9,23.3,154.1,23,154.3,22.5z M157.4,21.1c-0.6-0.1-1.1,0-1.7,0.5c-0.5,0.5-0.9,1-1.1,1.5c0.1-0.1,0.3-0.2,0.6-0.3
			s0.6-0.3,0.9-0.5c0.3-0.2,0.6-0.4,0.8-0.6C157.3,21.5,157.4,21.4,157.4,21.1z"></path>
		<path class="st2 sMgjptfA_9" d="M166.4,23.7l0.3-0.5c0.1-0.2,0.2-0.3,0.3-0.5c0.1-0.1,0.2-0.3,0.2-0.5v-0.1l-0.1,0.1l-0.3,0.2
			c-0.3,0.2-0.5,0.3-0.8,0.5s-0.5,0.3-0.7,0.4s-0.4,0-0.5-0.2c-0.1-0.1-0.1-0.3,0.2-0.4c0.2-0.1,0.4-0.2,0.7-0.3s0.5-0.3,0.7-0.4
			l0.5-0.4l0.3-0.3v-0.1c0.1-0.2,0.2-0.2,0.3-0.3c0.1,0,0.2,0.1,0.3,0.3l0.1,0.2c0.1,0.4,0,0.9-0.2,1.3c0.3-0.2,0.7-0.5,1.2-0.8
			s1-0.6,1.6-0.9s1.1-0.5,1.6-0.7s1-0.2,1.3,0c0.2,0.1,0.3,0.3,0.3,0.5s0,0.5-0.1,0.7s-0.2,0.5-0.3,0.7c-0.1,0.2-0.2,0.4-0.2,0.5
			v0.1c0.3-0.2,0.7-0.4,1.1-0.7c0.4-0.3,0.9-0.5,1.4-0.7s1-0.4,1.4-0.5c0.5-0.1,0.9-0.1,1.2,0s0.4,0.3,0.3,0.6c0,0.1,0,0.1,0,0.2
			s0,0.1-0.1,0.2c-0.2,0.3-0.4,0.6-0.7,1s-0.6,0.7-0.7,1c-0.2,0.3-0.2,0.5,0,0.6s0.7,0.1,1.6-0.1c2.3-0.5,4.2-1.2,5.8-2.2
			c0.1-0.1,0.1-0.1,0.2-0.1c0.1,0,0.1,0.1,0.1,0.2c0.1,0.1,0.1,0.3,0,0.4c-0.9,0.6-1.9,1.1-3,1.5s-2.1,0.7-3.1,0.9
			c-0.9,0.2-1.5,0.2-1.9,0.1c-0.4-0.1-0.6-0.3-0.6-0.5s0.1-0.5,0.3-0.9c0.2-0.3,0.4-0.7,0.7-1c0.2-0.3,0.4-0.6,0.6-0.8
			c0.2-0.2,0.2-0.3,0.2-0.4c-0.2-0.1-0.6-0.1-1.1,0.1s-1,0.4-1.6,0.7s-1.2,0.6-1.7,1c-0.6,0.4-1,0.7-1.3,1.1
			c-0.1,0.1-0.2,0.2-0.3,0.3s-0.2,0.2-0.2,0.3h-0.1c-0.2,0-0.3-0.1-0.4-0.2c-0.1-0.1-0.1-0.2,0-0.3c0.4-0.5,0.8-1.1,1.1-1.6
			s0.5-0.9,0.7-1.2s0.2-0.6,0.2-0.8c0-0.2-0.1-0.2-0.4-0.2c-0.4,0.1-0.8,0.2-1.3,0.5s-1.1,0.6-1.7,1c-0.6,0.4-1.1,0.7-1.7,1.1
			c-0.5,0.4-1,0.7-1.3,1.1c-0.1,0.1-0.2,0.2-0.3,0.3s-0.2,0.2-0.2,0.3h-0.1c-0.2,0-0.3-0.1-0.4-0.2c-0.1-0.1-0.1-0.2,0-0.3
			L166.4,23.7z"></path>
		<path class="st2 sMgjptfA_10" d="M184.1,25.5c-0.4-0.2-0.5-0.6-0.4-1c0.1-0.5,0.3-0.9,0.7-1.3c0.4-0.4,0.9-0.8,1.4-1.2
			c0.6-0.3,1.2-0.5,1.7-0.5c0.4,0,0.7,0.1,1,0.2c0.3,0.2,0.5,0.3,0.6,0.5c0.1,0.1,0,0.2-0.1,0.3s-0.2,0.1-0.3,0
			c-0.2-0.1-0.3-0.2-0.5-0.3c-0.1-0.1-0.4-0.2-0.8-0.2c-0.4,0-0.8,0.1-1.2,0.4c-0.4,0.3-0.8,0.6-1.2,0.9s-0.6,0.7-0.7,1
			c-0.1,0.3-0.1,0.5,0.1,0.6c0.3,0.1,0.7,0,1.2-0.2s1-0.5,1.5-0.8s1-0.6,1.5-1s0.9-0.7,1.3-0.9c0.3-0.3,0.5-0.3,0.6-0.1
			s0.1,0.4-0.1,0.5c-0.4,0.3-0.7,0.6-0.8,1.1s-0.1,0.7,0.1,0.8c0.2,0.1,0.6,0,1.1-0.2s1-0.5,1.6-0.7c0.5-0.3,1.1-0.6,1.5-0.9
			s0.8-0.5,0.9-0.6c0.2-0.1,0.3,0,0.5,0.1c0.1,0.2,0.1,0.3-0.1,0.4c-0.2,0.1-0.6,0.3-1.1,0.6s-1,0.6-1.6,0.9
			c-0.6,0.3-1.1,0.5-1.7,0.7c-0.6,0.2-1,0.2-1.4,0.1c-0.4-0.1-0.6-0.3-0.6-0.6c-0.1-0.3,0-0.6,0.1-0.9c-0.4,0.3-0.8,0.5-1.2,0.8
			s-1,0.6-1.5,0.8s-1,0.4-1.4,0.5C184.6,25.8,184.4,25.7,184.1,25.5z"></path>
		<path class="st2 sMgjptfA_11" d="M198.4,24.2c0.1-0.3,0.2-0.5,0.4-0.7c0.1-0.2,0.2-0.4,0.4-0.7c0.1-0.2,0.3-0.5,0.5-0.8s0.4-0.7,0.7-1.2
			l-1,0.5c-0.4,0.3-0.9,0.6-1.4,0.9c-0.5,0.3-1,0.6-1.6,1c-0.1,0-0.1,0-0.2,0c-0.1,0-0.2-0.1-0.2-0.2c0-0.2,0.1-0.3,0.2-0.4
			c0.8-0.5,1.5-0.9,2.3-1.3s1.5-0.8,2.1-1.3l0.7-0.3l0.3-0.5c0.6-0.8,1.2-1.6,1.8-2.2s1.2-1.2,1.7-1.7c1.1-0.9,2-1.6,2.9-2
			s1.6-0.5,2.1-0.2c0.3,0.2,0.4,0.5,0.3,0.9c-0.1,0.3-0.3,0.6-0.6,0.9s-0.7,0.6-1.1,0.9c-0.5,0.3-1,0.7-1.7,1.2
			c-0.7,0.4-1.4,0.8-2.2,1.3s-1.6,0.9-2.4,1.4l-0.7,0.4l-0.5,0.8c-0.2,0.2-0.3,0.4-0.5,0.7s-0.5,0.8-0.8,1.4
			c0.2-0.2,0.7-0.5,1.3-0.9c0.7-0.4,1.4-0.9,2.2-1.3c0.8-0.5,1.6-0.9,2.4-1.3c0.8-0.4,1.4-0.7,2-0.8c0.3-0.1,0.6-0.1,0.8,0
			c0.3,0,0.4,0.2,0.5,0.6v0.1c0,0.4-0.3,0.8-0.9,1.1c-0.6,0.4-1.2,0.7-1.9,1s-1.5,0.5-2.2,0.7s-1.2,0.3-1.5,0.3
			c0.5,1.4,1.2,2.5,2.2,3.3s2.1,1.3,3.3,1.6s2.4,0.3,3.6,0.1c1.2-0.2,2.2-0.5,3-1c0.2-0.2,0.4-0.2,0.5,0.1c0.1,0.1,0.1,0.1,0,0.2
			c0,0.1-0.1,0.2-0.2,0.2c-0.9,0.5-2,0.9-3.3,1.1c-1.3,0.2-2.6,0.1-3.9-0.2c-1.3-0.3-2.5-0.9-3.6-1.7c-1.1-0.9-1.9-2.1-2.4-3.7
			c-0.8,0.4-1.3,0.8-1.7,1.2c-0.4,0.3-0.7,0.7-1.1,1.1c-0.2,0.2-0.4,0.2-0.5,0C198.4,24.5,198.4,24.3,198.4,24.2z M208.4,19.3
			c-0.1,0-0.1,0-0.1-0.1s-0.1-0.1-0.3,0c-0.2,0-0.5,0.2-1,0.4c-0.5,0.2-1,0.5-1.6,0.8s-1.1,0.6-1.6,0.9s-0.9,0.5-1.1,0.6
			c0.3-0.1,0.8-0.2,1.4-0.4c0.6-0.2,1.2-0.4,1.8-0.6s1.2-0.5,1.7-0.8C207.9,19.9,208.3,19.5,208.4,19.3L208.4,19.3z M206.6,16.4
			c0.6-0.4,1.2-0.8,1.6-1.1c0.4-0.3,0.8-0.6,1.1-0.9c0.2-0.2,0.3-0.3,0.3-0.4s0.1-0.2,0.2-0.2c0-0.1,0-0.1-0.1-0.1
			c-0.2-0.2-0.7-0.1-1.4,0.2c-0.8,0.3-1.7,0.9-2.8,1.9c-0.4,0.4-0.8,0.7-1.2,1.2c-0.4,0.4-0.8,0.9-1.3,1.4l-0.3,0.4l0.7-0.4
			c0.6-0.4,1.1-0.7,1.7-1.1C205.6,17,206.1,16.6,206.6,16.4z"></path>
	</g>
</g>
<g id="Layer_2">
	<path class="st3 sMgjptfA_12" d="M1.9,22.5c2.2-1.3,4.4-2.8,6.5-4.4c1.1-0.8,2.1-1.7,3-2.6c0.6-0.6,1.2-1.3,1.5-2c0-0.1,0.1-0.2,0-0.3
		c-0.1-0.1-0.3-0.1-0.5,0c-0.9,0.4-1.7,1-2.5,1.6c-2.1,1.7-4.1,3.5-5.9,5.5c-1,1.1-2,2.3-2.6,3.7c-0.2,0.5-0.5,1.2-0.1,1.7
		c0.3,0.4,0.9,0.4,1.4,0.3c1.1-0.4,2.1-1.1,2.6-2.1c0.2-0.4,0.4-0.8,0.4-1.2c0-0.3-0.1-0.6-0.4-0.8S4.5,21.5,4.5,22
		c-0.1,0.7,0.4,1.4,0.9,1.8c0.9,0.8,2.2,0.5,3.3,0.1c1.2-0.4,2.4-1,3.6-1.7c0,0,0.1,0,0.1-0.1"></path>
	<path class="st3 sMgjptfA_13" d="M12.4,23.3c0,0,1.4-0.6,2.5-1.6c0,0-1.5,0.9-0.9,2.5s3.7-2,3.7-2s-2.9,10.6-8.8,11.6c0,0-1.3,0.3-1.2-0.7
		s0.4-2.7,5.1-3.8s6.2,0.9,6.2,0.9"></path>
	<path class="st3 sMgjptfA_14" d="M36.3,19.3c0,0,0.4,0.5,1,0.6s10.5,0.3,24.8-1.8s16.1-0.9,16.1-0.9"></path>
	<path class="st3 sMgjptfA_15" d="M38,32.8c0,0,1.9-5.4,9.2-11.7s19-16,27.7-19.2c1.6-0.6,4.6-1.9,6.2-0.7c2,1.5-0.9,4.5-1.8,5.7
		c-1.2,1.7-2.6,3.3-4,4.8c-1.7,1.9-3.4,3.8-5,5.7c-0.9,1.1-1.8,2.2-2.6,3.4c-0.8,1.2-3.1,4.6-0.7,5.4c1.9,0.6,4-0.1,5.8-0.8
		c2.4-0.9,4.7-2,7-3.1"></path>
	<path class="st3 sMgjptfA_16" d="M80.9,22.5c0,0,13.8-9,14.3-11.7S78.8,22.2,80.9,24.5c2.1,2.5,10.5-2.3,10.5-2.3"></path>
	<path class="st3 sMgjptfA_17" d="M91.2,23.5c0.1-0.4,3.4-1.8,3.4-1.8s-3.6,2.9-1.5,3s5.4-1.5,6.7-2.3"></path>
	<path class="st3 sMgjptfA_18" d="M94.8,20c0,0,0.9-0.6,1.4-1.7"></path>
	<path class="st3 sMgjptfA_19" d="M100.4,23.2c0,0,1.7-0.4,2.5-2c0,0,0.5,0.9-0.4,2.1"></path>
	<path class="st3 sMgjptfA_20" d="M100.8,25c0,0,1.8-2.4,4.9-3.5s-0.8,3.3,0.9,3.7c1.7,0.4,7.1-3.3,7.1-3.3"></path>
	<path class="st3 sMgjptfA_21" d="M118.1,22.5c0,0-0.1-0.8-1.2-0.8s-3.8,1.6-3.5,3s5.3-1.9,6-2.5c0,0-1.9,2.3-0.2,2.4c1.7,0,5.3-2.4,5.3-2.4"></path>
	<path class="st3 sMgjptfA_22" d="M126.1,15.1c0,0,5.3,4,13.1,3.9s17.4-2.9,23.2-10.2s0.2-8.2-5.1-5.2s-13.3,8.2-22.1,19.7l-6.6,8.7"></path>
	<path class="st3 sMgjptfA_23" d="M124.4,32.8c0,0,18.7-5,25.2-4.7s6.1,0.5,6.1,0.5"></path>
	<path class="st3 sMgjptfA_24" d="M154.4,23.7c0,0,3.5-1,3.4-2.5s-3.1,0.6-3.3,1.5c-0.2,1,0,2.4,2.5,2.5s7.1-2.6,7.1-2.6"></path>
	<path class="st3 sMgjptfA_25" d="M164.9,23c0,0,2.4-0.6,2.6-1.8c0,0,0.6,1.6-1.6,3.5c0,0,4.3-4.4,7.2-4.2s-2,4.2-2,4.2s3.8-3,5.6-3.5
		s1.1,0.6,0.5,1.3s-1.8,2.4,0.9,2.2s6.3-2.8,6.3-2.8"></path>
	<path class="st3 sMgjptfA_26" d="M189.1,22.3c0,0,0-0.5-1.3-0.5s-2.2,0.6-2.8,1.1s-1.6,2.2-0.6,2.2s2.6-0.5,6-2.9c0,0-1.8,1.6-0.4,2.4
		s5.2-2.4,5.2-2.4"></path>
	<path class="st3 sMgjptfA_27" d="M196.4,23c0,0,10.8-6.1,12.5-7.7s1.3-1.8,0.5-1.9s-5.8,2-10.9,11c0,0,9.5-7.2,10.1-5.2s-6.5,3.1-6.5,3.1
		s1.1,5,6.9,5.6s6.1-1.6,6.1-1.6"></path>
</g>
<style data-made-with="vivus-instant">.sMgjptfA_0{stroke-dasharray:92 94;stroke-dashoffset:93;animation:sMgjptfA_draw_0 9200ms linear 0ms infinite,sMgjptfA_fade 9200ms linear 0ms infinite;}.sMgjptfA_1{stroke-dasharray:76 78;stroke-dashoffset:77;animation:sMgjptfA_draw_1 9200ms linear 0ms infinite,sMgjptfA_fade 9200ms linear 0ms infinite;}.sMgjptfA_2{stroke-dasharray:282 284;stroke-dashoffset:283;animation:sMgjptfA_draw_2 9200ms linear 0ms infinite,sMgjptfA_fade 9200ms linear 0ms infinite;}.sMgjptfA_3{stroke-dasharray:99 101;stroke-dashoffset:100;animation:sMgjptfA_draw_3 9200ms linear 0ms infinite,sMgjptfA_fade 9200ms linear 0ms infinite;}.sMgjptfA_4{stroke-dasharray:34 36;stroke-dashoffset:35;animation:sMgjptfA_draw_4 9200ms linear 0ms infinite,sMgjptfA_fade 9200ms linear 0ms infinite;}.sMgjptfA_5{stroke-dasharray:48 50;stroke-dashoffset:49;animation:sMgjptfA_draw_5 9200ms linear 0ms infinite,sMgjptfA_fade 9200ms linear 0ms infinite;}.sMgjptfA_6{stroke-dasharray:46 48;stroke-dashoffset:47;animation:sMgjptfA_draw_6 9200ms linear 0ms infinite,sMgjptfA_fade 9200ms linear 0ms infinite;}.sMgjptfA_7{stroke-dasharray:248 250;stroke-dashoffset:249;animation:sMgjptfA_draw_7 9200ms linear 0ms infinite,sMgjptfA_fade 9200ms linear 0ms infinite;}.sMgjptfA_8{stroke-dasharray:42 44;stroke-dashoffset:43;animation:sMgjptfA_draw_8 9200ms linear 0ms infinite,sMgjptfA_fade 9200ms linear 0ms infinite;}.sMgjptfA_9{stroke-dasharray:75 77;stroke-dashoffset:76;animation:sMgjptfA_draw_9 9200ms linear 0ms infinite,sMgjptfA_fade 9200ms linear 0ms infinite;}.sMgjptfA_10{stroke-dasharray:46 48;stroke-dashoffset:47;animation:sMgjptfA_draw_10 9200ms linear 0ms infinite,sMgjptfA_fade 9200ms linear 0ms infinite;}.sMgjptfA_11{stroke-dasharray:128 130;stroke-dashoffset:129;animation:sMgjptfA_draw_11 9200ms linear 0ms infinite,sMgjptfA_fade 9200ms linear 0ms infinite;}.sMgjptfA_12{stroke-dasharray:51 53;stroke-dashoffset:52;animation:sMgjptfA_draw_12 9200ms linear 0ms infinite,sMgjptfA_fade 9200ms linear 0ms infinite;}.sMgjptfA_13{stroke-dasharray:41 43;stroke-dashoffset:42;animation:sMgjptfA_draw_13 9200ms linear 0ms infinite,sMgjptfA_fade 9200ms linear 0ms infinite;}.sMgjptfA_14{stroke-dasharray:43 45;stroke-dashoffset:44;animation:sMgjptfA_draw_14 9200ms linear 0ms infinite,sMgjptfA_fade 9200ms linear 0ms infinite;}.sMgjptfA_15{stroke-dasharray:101 103;stroke-dashoffset:102;animation:sMgjptfA_draw_15 9200ms linear 0ms infinite,sMgjptfA_fade 9200ms linear 0ms infinite;}.sMgjptfA_16{stroke-dasharray:52 54;stroke-dashoffset:53;animation:sMgjptfA_draw_16 9200ms linear 0ms infinite,sMgjptfA_fade 9200ms linear 0ms infinite;}.sMgjptfA_17{stroke-dasharray:16 18;stroke-dashoffset:17;animation:sMgjptfA_draw_17 9200ms linear 0ms infinite,sMgjptfA_fade 9200ms linear 0ms infinite;}.sMgjptfA_18{stroke-dasharray:3 5;stroke-dashoffset:4;animation:sMgjptfA_draw_18 9200ms linear 0ms infinite,sMgjptfA_fade 9200ms linear 0ms infinite;}.sMgjptfA_19{stroke-dasharray:6 8;stroke-dashoffset:7;animation:sMgjptfA_draw_19 9200ms linear 0ms infinite,sMgjptfA_fade 9200ms linear 0ms infinite;}.sMgjptfA_20{stroke-dasharray:20 22;stroke-dashoffset:21;animation:sMgjptfA_draw_20 9200ms linear 0ms infinite,sMgjptfA_fade 9200ms linear 0ms infinite;}.sMgjptfA_21{stroke-dasharray:23 25;stroke-dashoffset:24;animation:sMgjptfA_draw_21 9200ms linear 0ms infinite,sMgjptfA_fade 9200ms linear 0ms infinite;}.sMgjptfA_22{stroke-dasharray:96 98;stroke-dashoffset:97;animation:sMgjptfA_draw_22 9200ms linear 0ms infinite,sMgjptfA_fade 9200ms linear 0ms infinite;}.sMgjptfA_23{stroke-dasharray:32 34;stroke-dashoffset:33;animation:sMgjptfA_draw_23 9200ms linear 0ms infinite,sMgjptfA_fade 9200ms linear 0ms infinite;}.sMgjptfA_24{stroke-dasharray:21 23;stroke-dashoffset:22;animation:sMgjptfA_draw_24 9200ms linear 0ms infinite,sMgjptfA_fade 9200ms linear 0ms infinite;}.sMgjptfA_25{stroke-dasharray:42 44;stroke-dashoffset:43;animation:sMgjptfA_draw_25 9200ms linear 0ms infinite,sMgjptfA_fade 9200ms linear 0ms infinite;}.sMgjptfA_26{stroke-dasharray:23 25;stroke-dashoffset:24;animation:sMgjptfA_draw_26 9200ms linear 0ms infinite,sMgjptfA_fade 9200ms linear 0ms infinite;}.sMgjptfA_27{stroke-dasharray:70 72;stroke-dashoffset:71;animation:sMgjptfA_draw_27 9200ms linear 0ms infinite,sMgjptfA_fade 9200ms linear 0ms infinite;}@keyframes sMgjptfA_draw{100%{stroke-dashoffset:0;}}@keyframes sMgjptfA_fade{0%{stroke-opacity:1;}95.65217391304348%{stroke-opacity:1;}100%{stroke-opacity:0;}}@keyframes sMgjptfA_draw_0{8.695652173913043%{stroke-dashoffset: 93}11.378427028523957%{ stroke-dashoffset: 0;}100%{ stroke-dashoffset: 0;}}@keyframes sMgjptfA_draw_1{11.378427028523957%{stroke-dashoffset: 77}13.599649219976001%{ stroke-dashoffset: 0;}100%{ stroke-dashoffset: 0;}}@keyframes sMgjptfA_draw_2{13.599649219975998%{stroke-dashoffset: 283}21.763361949598448%{ stroke-dashoffset: 0;}100%{ stroke-dashoffset: 0;}}@keyframes sMgjptfA_draw_3{21.76336194959845%{stroke-dashoffset: 100}24.648066094341363%{ stroke-dashoffset: 0;}100%{ stroke-dashoffset: 0;}}@keyframes sMgjptfA_draw_4{24.648066094341363%{stroke-dashoffset: 35}25.657712545001388%{ stroke-dashoffset: 0;}100%{ stroke-dashoffset: 0;}}@keyframes sMgjptfA_draw_5{25.657712545001388%{stroke-dashoffset: 49}27.07121757592541%{ stroke-dashoffset: 0;}100%{ stroke-dashoffset: 0;}}@keyframes sMgjptfA_draw_6{27.07121757592541%{stroke-dashoffset: 47}28.427028523954583%{ stroke-dashoffset: 0;}100%{ stroke-dashoffset: 0;}}@keyframes sMgjptfA_draw_7{28.427028523954583%{stroke-dashoffset: 249}35.60994184436444%{ stroke-dashoffset: 0;}100%{ stroke-dashoffset: 0;}}@keyframes sMgjptfA_draw_8{35.60994184436444%{stroke-dashoffset: 43}36.8503646266039%{ stroke-dashoffset: 0;}100%{ stroke-dashoffset: 0;}}@keyframes sMgjptfA_draw_9{36.8503646266039%{stroke-dashoffset: 76}39.042739776608514%{ stroke-dashoffset: 0;}100%{ stroke-dashoffset: 0;}}@keyframes sMgjptfA_draw_10{39.04273977660851%{stroke-dashoffset: 47}40.39855072463768%{ stroke-dashoffset: 0;}100%{ stroke-dashoffset: 0;}}@keyframes sMgjptfA_draw_11{40.39855072463768%{stroke-dashoffset: 129}44.11981907135604%{ stroke-dashoffset: 0;}100%{ stroke-dashoffset: 0;}}@keyframes sMgjptfA_draw_12{44.11981907135604%{stroke-dashoffset: 52}45.61986522662235%{ stroke-dashoffset: 0;}100%{ stroke-dashoffset: 0;}}@keyframes sMgjptfA_draw_13{45.61986522662235%{stroke-dashoffset: 42}46.83144096741438%{ stroke-dashoffset: 0;}100%{ stroke-dashoffset: 0;}}@keyframes sMgjptfA_draw_14{46.83144096741438%{stroke-dashoffset: 44}48.100710791101264%{ stroke-dashoffset: 0;}100%{ stroke-dashoffset: 0;}}@keyframes sMgjptfA_draw_15{48.100710791101264%{stroke-dashoffset: 102}51.04310901873904%{ stroke-dashoffset: 0;}100%{ stroke-dashoffset: 0;}}@keyframes sMgjptfA_draw_16{51.04310901873904%{stroke-dashoffset: 53}52.572002215452784%{ stroke-dashoffset: 0;}100%{ stroke-dashoffset: 0;}}@keyframes sMgjptfA_draw_17{52.572002215452784%{stroke-dashoffset: 17}53.062401920059074%{ stroke-dashoffset: 0;}100%{ stroke-dashoffset: 0;}}@keyframes sMgjptfA_draw_18{53.062401920059074%{stroke-dashoffset: 4}53.1777900858488%{ stroke-dashoffset: 0;}100%{ stroke-dashoffset: 0;}}@keyframes sMgjptfA_draw_19{53.1777900858488%{stroke-dashoffset: 7}53.379719375980805%{ stroke-dashoffset: 0;}100%{ stroke-dashoffset: 0;}}@keyframes sMgjptfA_draw_20{53.379719375980805%{stroke-dashoffset: 21}53.98550724637682%{ stroke-dashoffset: 0;}100%{ stroke-dashoffset: 0;}}@keyframes sMgjptfA_draw_21{53.98550724637682%{stroke-dashoffset: 24}54.677836241115116%{ stroke-dashoffset: 0;}100%{ stroke-dashoffset: 0;}}@keyframes sMgjptfA_draw_22{54.677836241115116%{stroke-dashoffset: 97}57.47599926151574%{ stroke-dashoffset: 0;}100%{ stroke-dashoffset: 0;}}@keyframes sMgjptfA_draw_23{57.47599926151573%{stroke-dashoffset: 33}58.4279516292809%{ stroke-dashoffset: 0;}100%{ stroke-dashoffset: 0;}}@keyframes sMgjptfA_draw_24{58.4279516292809%{stroke-dashoffset: 22}59.06258654112434%{ stroke-dashoffset: 0;}100%{ stroke-dashoffset: 0;}}@keyframes sMgjptfA_draw_25{59.062586541124354%{stroke-dashoffset: 43}60.303009323363796%{ stroke-dashoffset: 0;}100%{ stroke-dashoffset: 0;}}@keyframes sMgjptfA_draw_26{60.303009323363796%{stroke-dashoffset: 24}60.9953383181021%{ stroke-dashoffset: 0;}100%{ stroke-dashoffset: 0;}}@keyframes sMgjptfA_draw_27{60.9953383181021%{stroke-dashoffset: 71}63.04347826086957%{ stroke-dashoffset: 0;}100%{ stroke-dashoffset: 0;}}</style></svg>
