<?xml version="1.0" encoding="utf-8"?>
<!-- Generator: Adobe Illustrator 19.2.0, SVG Export Plug-In . SVG Version: 6.00 Build 0)  -->
<svg version="1.1" id="Layer_1" xmlns="http://www.w3.org/2000/svg" xmlns:xlink="http://www.w3.org/1999/xlink" x="0px" y="0px"
	 viewBox="0 0 180 120" style="enable-background:new 0 0 180 120;" xml:space="preserve">
<style type="text/css">
	.st0{fill:none;}
	.st1{fill:none;stroke:#000000;stroke-linecap:round;stroke-linejoin:round;stroke-miterlimit:10;}
	.st2{fill:#FFFFFF;stroke:#000000;stroke-linecap:round;stroke-linejoin:round;stroke-miterlimit:10;}
</style>
<g>
	<path d="M137,78c0,0.2-0.1,0.3-0.2,0.4s-0.3,0.2-0.4,0.2c-0.3,0-0.5-0.1-0.6-0.4l-1-2.5h-5.9l-1,2.5c-0.1,0.2-0.3,0.4-0.5,0.4
		c-0.2,0-0.3-0.1-0.4-0.2s-0.2-0.3-0.2-0.4c0-0.1,0-0.2,0-0.3l4.5-10.7c0.1-0.3,0.3-0.4,0.6-0.4s0.5,0.1,0.6,0.4l4.5,10.7
		C136.9,77.8,137,77.9,137,78z M134.4,74.7l-2.5-6.1l-2.5,6.1H134.4z"/>
	<path d="M138.9,66.8c0.1-0.1,0.3-0.2,0.4-0.2c0.2,0,0.3,0.1,0.4,0.2c0.1,0.1,0.2,0.3,0.2,0.4V78c0,0.2-0.1,0.3-0.2,0.4
		c-0.1,0.1-0.3,0.2-0.4,0.2c-0.2,0-0.3-0.1-0.4-0.2s-0.2-0.3-0.2-0.4V67.2C138.7,67.1,138.7,66.9,138.9,66.8z"/>
	<path d="M126.4,80.1v-0.8h15v0.8H126.4z"/>
</g>
<g>
	<polygon class="st0" points="150.3,12.4 150.3,12.6 150.5,12.6 	"/>
	<polygon class="st1" points="150.3,12.6 96.2,12.6 96.2,107.6 172.4,107.6 172.4,34.5 150.3,34.5 	"/>
	<line class="st1" x1="150.5" y1="12.6" x2="172.4" y2="34.5"/>
	<polygon class="st2" points="150.3,12.6 150.3,34.5 172.4,34.5 150.5,12.6 	"/>
</g>
<g>
	<path d="M40.3,78.4c-0.1,0.1-0.3,0.2-0.4,0.2s-0.3-0.1-0.4-0.2s-0.2-0.3-0.2-0.4V67.2c0-0.2,0.1-0.3,0.2-0.4s0.3-0.2,0.4-0.2h3.1
		c0.7,0,1.4,0.2,2,0.5s1,0.8,1.4,1.4c0.3,0.6,0.5,1.3,0.5,2c0,0.7-0.2,1.4-0.5,2c-0.3,0.6-0.8,1-1.4,1.4c-0.6,0.3-1.3,0.5-2,0.5
		h-2.5V78C40.5,78.2,40.4,78.3,40.3,78.4z M44.3,72.9c0.4-0.2,0.7-0.5,1-1c0.2-0.4,0.3-0.9,0.3-1.4c0-0.5-0.1-1-0.3-1.4
		c-0.2-0.4-0.5-0.7-1-1c-0.4-0.2-0.9-0.4-1.4-0.4h-2.5v5.4h2.5C43.5,73.2,43.9,73.1,44.3,72.9z"/>
	<path d="M53.1,70.5c0.5,0.2,0.9,0.5,1.2,1c0.1,0.1,0.1,0.3,0.1,0.4c0,0.2-0.1,0.3-0.2,0.4c-0.1,0.1-0.2,0.1-0.3,0.1
		c-0.2,0-0.4-0.1-0.5-0.2c-0.5-0.6-1.2-0.9-2-0.9c-0.6,0-1,0.1-1.3,0.3c-0.3,0.2-0.5,0.5-0.5,0.9c0,0.4,0.2,0.7,0.5,0.9
		c0.3,0.2,0.9,0.4,1.7,0.5c1.1,0.2,1.9,0.5,2.3,0.9c0.5,0.4,0.7,0.9,0.7,1.5c0,0.5-0.1,0.9-0.4,1.3c-0.3,0.4-0.7,0.7-1.2,0.9
		c-0.5,0.2-1.1,0.3-1.7,0.3c-0.6,0-1.2-0.1-1.8-0.3c-0.6-0.2-1-0.5-1.4-0.9c-0.1-0.1-0.2-0.2-0.2-0.4c0-0.2,0.1-0.3,0.2-0.5
		c0.1-0.1,0.3-0.1,0.4-0.1c0.2,0,0.3,0.1,0.4,0.2c0.2,0.3,0.6,0.5,1,0.7c0.4,0.2,0.8,0.2,1.3,0.2c0.7,0,1.2-0.1,1.6-0.4
		c0.4-0.2,0.5-0.6,0.6-1c0-0.4-0.2-0.7-0.5-0.9c-0.4-0.2-0.9-0.4-1.7-0.5c-1-0.2-1.7-0.4-2.2-0.8c-0.5-0.4-0.7-0.9-0.7-1.5
		c0-0.7,0.3-1.3,0.9-1.7c0.6-0.4,1.3-0.6,2.2-0.6C52,70.2,52.6,70.3,53.1,70.5z"/>
	<path d="M37.8,80.1v-0.8h17.6v0.8H37.8z"/>
</g>
<g>
	<polygon class="st0" points="61.7,12.4 61.7,12.6 61.9,12.6 	"/>
	<polygon class="st1" points="61.7,12.6 7.6,12.6 7.6,107.6 83.8,107.6 83.8,34.5 61.7,34.5 	"/>
	<line class="st1" x1="61.9" y1="12.6" x2="83.8" y2="34.5"/>
	<polygon class="st2" points="61.7,12.6 61.7,34.5 83.8,34.5 61.9,12.6 	"/>
</g>
</svg>
