<?xml version="1.0" encoding="utf-8"?>
<!-- Generator: Adobe Illustrator 19.2.0, SVG Export Plug-In . SVG Version: 6.00 Build 0)  -->
<svg version="1.1" id="Layer_1" xmlns="http://www.w3.org/2000/svg" xmlns:xlink="http://www.w3.org/1999/xlink" x="0px" y="0px"
	 viewBox="0 0 180 120" style="enable-background:new 0 0 180 120;" xml:space="preserve">
<style type="text/css">
	.st0{fill:#FFFFFF;stroke:#000000;stroke-miterlimit:10;}
	.st1{fill:none;stroke:#000000;stroke-miterlimit:10;}
</style>
<g>
	<polygon class="st0" points="108.3,105.5 118.2,86.1 98.5,86.1 	"/>
	<path class="st1" d="M98.5,86.1V21.4c0-3.5,2.9-6.4,6.4-6.4l6.9,0c3.5,0,6.4,2.9,6.4,6.4v8.7l-19.8,0l19.8,0v4.3l0,51.7H98.5"/>
	<g>
		<polyline class="st1" points="62.1,78.5 61.8,104.2 82.5,104.7 82.5,98.9 		"/>
		<polyline class="st1" points="82.5,104.7 83.4,15.1 62.7,14.5 62.4,41.9 62.1,78.5 		"/>
		<path class="st1" d="M82.8,74.2L72.4,74L82.8,74.2z"/>
		<path class="st1" d="M82.8,88.3L72.4,88L82.8,88.3z"/>
		<path class="st1" d="M82.9,59.9l-10.3-0.3L82.9,59.9z"/>
		<path class="st1" d="M83.1,45.6l-10.3-0.3L83.1,45.6z"/>
	</g>
</g>
</svg>
