<svg id="Layer_1" data-name="Layer 1" xmlns="http://www.w3.org/2000/svg" viewBox="0 0 180 120"><defs><style>.cls-1{fill:#231f20;}.cls-2{fill:none;}.cls-3{fill:#fff;}</style></defs><title>skill1-01</title><path class="cls-1" d="M136.95,78a0.6,0.6,0,0,1-1.16.23l-1-2.48h-5.92l-1,2.48a0.52,0.52,0,0,1-.55.37,0.54,0.54,0,0,1-.42-0.18,0.6,0.6,0,0,1-.16-0.42,0.66,0.66,0,0,1,0-.26l4.5-10.67a0.59,0.59,0,0,1,.58-0.41,0.57,0.57,0,0,1,.57.41l4.51,10.69A0.49,0.49,0,0,1,136.95,78Zm-2.6-3.27-2.54-6.13-2.54,6.13h5.08Z"/><path class="cls-1" d="M139.23,66.82a0.59,0.59,0,0,1,.42-0.17,0.57,0.57,0,0,1,.6.6V78a0.59,0.59,0,0,1-.17.42,0.57,0.57,0,0,1-.43.18,0.6,0.6,0,0,1-.6-0.6V67.25A0.57,0.57,0,0,1,139.23,66.82Z"/><path class="cls-1" d="M126.4,80.12V79.35h15.76v0.76H126.4Z"/><polygon class="cls-2" points="150.34 12.39 150.34 12.57 150.52 12.57 150.34 12.39"/><path class="cls-1" d="M172.91,108.11H95.73v-96h55.11V34h22.07v74.15Zm-76.18-1h75.18V35H149.84V13.07H96.73v94Z"/><rect class="cls-1" x="160.97" y="8.03" width="1" height="30.96" transform="translate(30.67 121.06) rotate(-45)"/><polygon class="cls-3" points="150.34 12.57 150.34 34.46 172.41 34.46 150.52 12.57 150.34 12.57"/><path class="cls-1" d="M173.62,35H149.84V12.07h0.89Zm-22.78-1h20.36L150.84,13.6V34Z"/><path class="cls-1" d="M40.31,78.42a0.6,0.6,0,0,1-1-.43V67.25a0.58,0.58,0,0,1,.6-0.6h3.06a4,4,0,0,1,2,.5,3.52,3.52,0,0,1,1.37,1.38,4.06,4.06,0,0,1,.49,2,4,4,0,0,1-.49,2,3.47,3.47,0,0,1-1.37,1.36,4,4,0,0,1-2,.49H40.47V78A0.58,0.58,0,0,1,40.31,78.42Zm4-5.54a2.46,2.46,0,0,0,1-1,2.79,2.79,0,0,0,.34-1.39,2.86,2.86,0,0,0-.34-1.41,2.5,2.5,0,0,0-1-1,2.74,2.74,0,0,0-1.39-.35H40.47v5.43h2.46A2.78,2.78,0,0,0,44.33,72.88Z"/><path class="cls-1" d="M53.52,70.49a3.09,3.09,0,0,1,1.21,1,0.69,0.69,0,0,1,.12.35,0.47,0.47,0,0,1-.25.41,0.48,0.48,0,0,1-.29.08,0.7,0.7,0,0,1-.54-0.23,2.58,2.58,0,0,0-2-.86,2.35,2.35,0,0,0-1.34.34,1,1,0,0,0,0,1.74,4.43,4.43,0,0,0,1.68.53,4.77,4.77,0,0,1,2.34.89,2,2,0,0,1,.7,1.54,2,2,0,0,1-.42,1.25,2.72,2.72,0,0,1-1.17.86,4.45,4.45,0,0,1-1.7.31A5.22,5.22,0,0,1,50,78.35a3.53,3.53,0,0,1-1.41-.9,0.56,0.56,0,0,1-.15-0.35,0.58,0.58,0,0,1,.25-0.46A0.63,0.63,0,0,1,49,76.49a0.57,0.57,0,0,1,.44.21,2.36,2.36,0,0,0,1,.66,3.75,3.75,0,0,0,1.34.23,2.86,2.86,0,0,0,1.61-.37,1.16,1.16,0,0,0,.55-1,1.09,1.09,0,0,0-.54-0.92,4.28,4.28,0,0,0-1.7-.55,4.76,4.76,0,0,1-2.24-.85,1.82,1.82,0,0,1-.74-1.46,2,2,0,0,1,.86-1.73,3.66,3.66,0,0,1,2.16-.61A4.18,4.18,0,0,1,53.52,70.49Z"/><path class="cls-1" d="M37.75,80.12V79.35H56.11v0.76H37.75Z"/><polygon class="cls-2" points="61.7 12.39 61.7 12.57 61.87 12.57 61.7 12.39"/><path class="cls-1" d="M84.27,108.11H7.09v-96H62.19V34H84.27v74.15Zm-76.18-1H83.27V35H61.19V13.07H8.09v94Z"/><rect class="cls-1" x="72.32" y="8.03" width="1" height="30.96" transform="translate(4.7 58.38) rotate(-45)"/><polygon class="cls-3" points="61.7 12.57 61.7 34.46 83.77 34.46 61.87 12.57 61.7 12.57"/><path class="cls-1" d="M85,35H61.19V12.07h0.89ZM62.19,34H82.56L62.19,13.6V34Z"/></svg>