<?xml version="1.0" encoding="utf-8"?>
<!-- Generator: Adobe Illustrator 19.2.0, SVG Export Plug-In . SVG Version: 6.00 Build 0)  -->
<svg version="1.1" id="Layer_1" xmlns="http://www.w3.org/2000/svg" xmlns:xlink="http://www.w3.org/1999/xlink" x="0px" y="0px"
	 viewBox="0 0 180 120" style="enable-background:new 0 0 180 120;" xml:space="preserve">
<style type="text/css">
	.st0{fill:#FFFFFF;stroke:#000000;stroke-linecap:round;stroke-linejoin:round;stroke-miterlimit:10;}
	.st1{fill:none;stroke:#000000;stroke-linecap:round;stroke-linejoin:round;stroke-miterlimit:10;}
</style>
<g>
	<g>
		<polygon class="st0" points="90,63.5 109.8,42.4 90,42.4 		"/>
		<polyline class="st0" points="109.8,42.4 103.7,30.2 90,42.4 		"/>
		<polygon class="st0" points="90,63.5 70.2,42.4 90,42.4 		"/>
		<polyline class="st0" points="70.2,42.4 76.3,30.2 90,42.4 		"/>
		<line class="st0" x1="76.3" y1="30.2" x2="103.7" y2="30.2"/>
	</g>
	<path class="st1" d="M106.6,81.4H73.2v4.9c0,7,5.7,12.6,12.6,12.6H94c7,0,12.6-5.7,12.6-12.6V81.4z"/>
	<path class="st1" d="M118.2,40.5c0-15.6-12.6-28.2-28.2-28.2S61.8,25,61.8,40.5v0h0c-0.1,1.5,0.1,3.3,0.5,5.3
		c0.2,1.3,0.6,2.5,1,3.7c2.9,9.6,9,22.4,9.9,31.9h16.8H90h16.8c0.8-8.9,6.2-20.5,9.2-29.9C117.4,48.1,118.2,44.4,118.2,40.5z"/>
	<g>
		<path class="st1" d="M81.2,98.1c0,2,0.7,4.8,1.9,6.3"/>
		<path class="st1" d="M86.7,107c1,0.4,2.1,0.6,3.2,0.6c4.8,0,8.7-4.8,8.7-9.6"/>
	</g>
</g>
</svg>
